<svg width="60" height="60" viewBox="0 0 60 60" fill="none" xmlns="http://www.w3.org/2000/svg">
<path d="M41.25 0C38.0208 0 35.9912 1.25244 34.585 2.18994C33.1787 3.12744 32.3958 3.75 30 3.75V7.5C33.2292 7.5 35.2588 6.24756 36.665 5.31006C38.0713 4.37256 38.8542 3.75 41.25 3.75V0ZM29.9707 11.25C29.4836 11.2578 29.0187 11.4548 28.6743 11.7993L19.2993 21.1743C18.9477 21.5259 18.7501 22.0028 18.75 22.5V26.25H5.625C5.12773 26.25 4.65085 26.4476 4.29923 26.7992C3.94761 27.1509 3.75005 27.6277 3.75 28.125V50.6104V52.5H56.25V48.75V28.125C56.25 27.6277 56.0524 27.1509 55.7008 26.7992C55.3491 26.4476 54.8723 26.25 54.375 26.25H41.25V22.5C41.2499 22.0028 41.0523 21.5259 40.7007 21.1743L31.3257 11.7993C31.1481 11.6217 30.9367 11.4815 30.7039 11.3872C30.4712 11.2928 30.2218 11.2462 29.9707 11.25ZM30 15.7764L37.5 23.2764V48.75H33.75V41.25C33.75 39.18 32.07 37.5 30 37.5C27.93 37.5 26.25 39.18 26.25 41.25V48.75H22.5V23.2764L30 15.7764ZM30 26.25C29.0054 26.25 28.0516 26.6451 27.3484 27.3484C26.6451 28.0516 26.25 29.0054 26.25 30C26.25 30.9946 26.6451 31.9484 27.3484 32.6516C28.0516 33.3549 29.0054 33.75 30 33.75C30.9946 33.75 31.9484 33.3549 32.6516 32.6516C33.3549 31.9484 33.75 30.9946 33.75 30C33.75 29.0054 33.3549 28.0516 32.6516 27.3484C31.9484 26.6451 30.9946 26.25 30 26.25ZM7.5 30H18.75V48.75H7.5V30ZM41.25 30H52.5V48.75H41.25V30ZM11.25 33.75V37.5H15V33.75H11.25ZM45 33.75V37.5H48.75V33.75H45ZM11.25 41.25V45H15V41.25H11.25ZM45 41.25V45H48.75V41.25H45Z" fill="white"/>
</svg>
