<svg width="60" height="60" viewBox="0 0 60 60" fill="none" xmlns="http://www.w3.org/2000/svg">
<path d="M43.125 3.76465C41.6816 3.76465 40.2382 4.30765 39.148 5.39795C38.4292 6.11669 37.972 6.99301 37.7271 7.91748C37.0558 7.65119 36.339 7.51465 35.625 7.51465C34.1816 7.51465 32.7382 8.05765 31.6479 9.14795C29.4674 11.3285 29.4674 14.9215 31.6479 17.1021L35.9473 21.4014L21.4014 35.9473L17.1021 31.648C16.0118 30.5577 14.5684 30.0147 13.125 30.0147C11.6816 30.0147 10.2382 30.5577 9.14795 31.648C7.51829 33.2776 7.11129 35.6988 7.91748 37.7271C6.99301 37.9714 6.11669 38.4292 5.39795 39.148C3.21736 41.3285 3.21736 44.9215 5.39795 47.1021L7.82227 49.5264L3.83057 53.5181L6.48193 56.1694L10.4736 52.1777L12.8979 54.6021C15.0785 56.7826 18.6715 56.7826 20.8521 54.6021C21.5692 53.8849 22.0311 53.0059 22.2803 52.0825C24.3072 52.8852 26.7241 52.48 28.3521 50.8521C29.4414 49.7627 30 48.3135 30 46.875C30 45.4365 29.4414 43.9873 28.3521 42.898L24.0527 38.5986L38.5986 24.0527L42.898 28.3521C43.9873 29.4414 45.4365 30 46.875 30C48.3135 30 49.7627 29.4414 50.8521 28.3521C52.48 26.7241 52.8852 24.3072 52.0825 22.2803C53.0059 22.0311 53.8849 21.5692 54.6021 20.8521C56.7826 18.6715 56.7826 15.0785 54.6021 12.898L52.1777 10.4736L56.1694 6.48193L53.5181 3.83057L49.5264 7.82227L47.1021 5.39795C46.0118 4.30765 44.5684 3.76465 43.125 3.76465ZM43.125 7.48535C43.5999 7.48535 44.0747 7.67336 44.4507 8.04932L51.9507 15.5493C52.7026 16.3012 52.7026 17.4488 51.9507 18.2007C51.5775 18.5738 51.1065 18.75 50.625 18.75C50.1435 18.75 49.6725 18.5738 49.2993 18.2007L46.1792 15.0806L41.7993 10.7007C41.0474 9.94877 41.0474 8.80123 41.7993 8.04932C42.1753 7.67336 42.6501 7.48535 43.125 7.48535ZM35.625 11.2354C36.0999 11.2354 36.5747 11.4234 36.9507 11.7993L48.2007 23.0493C48.9526 23.8012 48.9526 24.9488 48.2007 25.7007C47.8275 26.0738 47.3565 26.25 46.875 26.25C46.3935 26.25 45.9225 26.0738 45.5493 25.7007L34.2993 14.4507C33.5474 13.6988 33.5474 12.5512 34.2993 11.7993C34.6753 11.4234 35.1501 11.2354 35.625 11.2354ZM13.125 33.7354C13.5999 33.7354 14.0747 33.9234 14.4507 34.2993L25.7007 45.5493C26.0738 45.9225 26.25 46.3935 26.25 46.875C26.25 47.3565 26.0738 47.8275 25.7007 48.2007C24.9488 48.9526 23.8012 48.9526 23.0493 48.2007L11.7993 36.9507C11.0474 36.1988 11.0474 35.0512 11.7993 34.2993C12.1753 33.9234 12.6501 33.7354 13.125 33.7354ZM9.375 41.2354C9.84986 41.2354 10.3247 41.4234 10.7007 41.7993L15.0806 46.1792L18.2007 49.2993C18.5738 49.6725 18.75 50.1435 18.75 50.625C18.75 51.1065 18.5738 51.5775 18.2007 51.9507C17.4488 52.7026 16.3012 52.7026 15.5493 51.9507L8.04932 44.4507C7.29741 43.6988 7.29741 42.5512 8.04932 41.7993C8.42527 41.4234 8.90014 41.2354 9.375 41.2354Z" fill="white"/>
</svg>
