<svg width="60" height="60" viewBox="0 0 60 60" fill="none" xmlns="http://www.w3.org/2000/svg">
<path d="M22.5 3.75C20.4346 3.75 18.75 5.43457 18.75 7.5C18.75 9.56543 20.4346 11.25 22.5 11.25C22.6465 11.25 22.7783 11.2354 22.9248 11.2207C23.2471 12.6416 23.7451 13.96 24.4189 15.0879C24.5068 15.249 24.6387 15.3809 24.7412 15.5273C18.1348 16.582 12.2168 19.4531 7.44141 23.2471L9.75586 26.1914C15.2344 21.8555 22.2217 18.8379 30 18.8379C37.7783 18.8379 44.7656 21.8555 50.2295 26.1914L52.5586 23.2471C47.7686 19.4531 41.8652 16.582 35.2588 15.5273C35.3613 15.3809 35.4932 15.249 35.5811 15.0879C36.2549 13.96 36.7529 12.6416 37.0752 11.2207C37.2217 11.2354 37.3535 11.25 37.5 11.25C39.5654 11.25 41.25 9.56543 41.25 7.5C41.25 5.43457 39.5654 3.75 37.5 3.75C35.4346 3.75 33.75 5.43457 33.75 7.5C33.75 9.78516 33.1641 11.8213 32.3731 13.1543C31.5674 14.502 30.7031 15 30 15C29.2969 15 28.4326 14.502 27.627 13.1543C26.8359 11.8213 26.25 9.78516 26.25 7.5C26.25 5.43457 24.5654 3.75 22.5 3.75ZM30 22.5C22.6904 22.5 16.1865 25.8545 11.4844 30.2637C6.78223 34.6729 3.75 40.0928 3.75 45C3.75 46.9775 4.36524 48.8818 5.61035 50.3906C6.85547 51.8994 8.61328 53.0273 10.8105 53.8623C15.2197 55.5615 21.46 56.25 30 56.25C38.54 56.25 44.7803 55.5615 49.1748 53.8623C51.3867 53.0273 53.1445 51.8994 54.3896 50.3906C55.6348 48.8818 56.25 46.9775 56.25 45C56.25 40.0928 53.2178 34.6729 48.5156 30.2637C43.8135 25.8545 37.3096 22.5 30 22.5ZM30 26.25C36.1523 26.25 41.8213 29.1357 45.9521 33.0029C50.083 36.8701 52.5 41.7627 52.5 45C52.5 46.2598 52.1924 47.1533 51.4893 48.0029C50.7861 48.8672 49.6143 49.6875 47.8271 50.376C44.2676 51.7383 38.3203 52.5 30 52.5C21.6797 52.5 15.7324 51.7383 12.1582 50.376C10.3857 49.6875 9.21387 48.8672 8.51074 48.0029C7.80762 47.1533 7.5 46.2598 7.5 45C7.5 41.7627 9.91699 36.8701 14.0479 33.0029C18.1787 29.1357 23.8477 26.25 30 26.25Z" fill="white"/>
</svg>
